<svg width="32" height="32" viewBox="0 0 32 32" fill="none" xmlns="http://www.w3.org/2000/svg">
  <!-- Gradient definition -->
  <defs>
    <linearGradient id="smallyGradient" x1="0%" y1="0%" x2="100%" y2="100%">
      <stop offset="0%" style="stop-color:#3b82f6;stop-opacity:1" />
      <stop offset="100%" style="stop-color:#8b5cf6;stop-opacity:1" />
    </linearGradient>
  </defs>

  <!-- Main "S" shape with embedding vectors -->
  <g>
    <!-- Stylized S -->
    <path d="M 20 8 C 20 8 24 8 24 12 C 24 14 22 15 20 15 L 12 15 C 10 15 8 17 8 20 C 8 24 12 24 12 24 L 20 24"
          stroke="url(#smallyGradient)"
          stroke-width="3"
          stroke-linecap="round"
          stroke-linejoin="round"
          fill="none"/>

    <!-- Vector dots representing embeddings -->
    <circle cx="6" cy="10" r="1.5" fill="#3b82f6" opacity="0.6"/>
    <circle cx="26" cy="10" r="1.5" fill="#3b82f6" opacity="0.6"/>
    <circle cx="6" cy="22" r="1.5" fill="#8b5cf6" opacity="0.6"/>
    <circle cx="26" cy="22" r="1.5" fill="#8b5cf6" opacity="0.6"/>

    <!-- Small connecting lines (vectors) -->
    <line x1="8" y1="10" x2="12" y2="12" stroke="#3b82f6" stroke-width="0.5" opacity="0.3"/>
    <line x1="24" y1="10" x2="20" y2="12" stroke="#3b82f6" stroke-width="0.5" opacity="0.3"/>
    <line x1="8" y1="22" x2="12" y2="20" stroke="#8b5cf6" stroke-width="0.5" opacity="0.3"/>
    <line x1="24" y1="22" x2="20" y2="20" stroke="#8b5cf6" stroke-width="0.5" opacity="0.3"/>
  </g>
</svg>
